#N canvas 667 332 755 530 10;
#X declare -stdpath extra/tof;
#X obj 41 108 popup 124 25 #ffffff popup Assist02.pd Imagens MW.gif
MW.pd XCF zz.Projetor.pd zz.Retangulo.pd Assist.pd;
#X obj 471 82 file.path.top;
#X obj 367 284 print WHOLE_PATH;
#X obj 403 249 print FILE_NAME;
#X obj 442 174 print index;
#X obj 565 150 print DONE(#_OF_ENTRIES);
#X obj 387 119 file.folder;
#X msg 393 79 print;
#X msg 462 49 .;
#X obj 255 128 counter;
#X obj 421 222 s filename;
#X obj 255 80 bng 15 250 50 0 empty empty empty 17 7 0 10 -262144 -1
-1;
#X obj 262 14 loadbang;
#X obj 194 46 spigot;
#X obj 225 25 tgl 15 0 empty empty empty 17 7 0 10 -262144 -1 -1 0
1;
#X msg 190 -12 1;
#X obj 281 189 route 0;
#X obj 326 47 t b b b;
#X obj 27 19 r options;
#X obj 88 -17 t b f;
#N canvas 4 132 450 300 list 0;
#X obj 10 10 r filename;
#X obj 10 50 s options;
#X msg 10 30 append \$1;
#X connect 0 0 2 0;
#X connect 2 0 1 0;
#X restore 384 365 pd list;
#X obj 546 266 spigot;
#X obj 577 245 tgl 15 0 empty empty empty 17 7 0 10 -262144 -1 -1 1
1;
#X msg 542 208 1;
#X msg 79 73 options;
#X obj 306 252 delay 100;
#X connect 1 0 6 1;
#X connect 6 0 2 0;
#X connect 6 1 3 0;
#X connect 6 1 21 0;
#X connect 6 2 4 0;
#X connect 6 3 5 0;
#X connect 6 3 9 4;
#X connect 7 0 6 0;
#X connect 8 0 1 0;
#X connect 9 0 19 0;
#X connect 9 2 16 0;
#X connect 11 0 13 0;
#X connect 12 0 15 0;
#X connect 12 0 17 0;
#X connect 12 0 24 0;
#X connect 13 0 9 0;
#X connect 14 0 13 1;
#X connect 15 0 14 0;
#X connect 16 0 14 0;
#X connect 17 0 25 0;
#X connect 17 1 23 0;
#X connect 17 2 8 0;
#X connect 18 0 0 0;
#X connect 19 0 11 0;
#X connect 19 1 6 0;
#X connect 21 0 10 0;
#X connect 22 0 21 1;
#X connect 23 0 22 0;
#X connect 24 0 0 0;
#X connect 25 0 11 0;
