#N canvas 620 367 541 279 10;
#X obj 63 57 s \$0-alphaRetOUT;
#X obj 63 21 inlet;
#X obj 182 21 inlet;
#X obj 290 21 inlet;
#X obj 400 21 inlet;
#X obj 63 -17 outlet;
#X obj 182 -17 outlet;
#X obj 290 -17 outlet;
#X obj 400 -17 outlet;
#X obj 63 -55 r \$0-alphaCircIN;
#X obj 182 -55 r \$0-tamCircIN;
#X obj 290 -55 r \$0-rotCircIN;
#X obj 400 -55 r \$0-posCircIN;
#X obj 400 57 s \$0-posCircOUT;
#X obj 290 57 s \$0-rotCircOUT;
#X obj 182 57 s \$0-tamCircOUT;
#X connect 1 0 0 0;
#X connect 2 0 15 0;
#X connect 3 0 14 0;
#X connect 4 0 13 0;
#X connect 9 0 5 0;
#X connect 10 0 6 0;
#X connect 11 0 7 0;
#X connect 12 0 8 0;
