#N canvas 310 306 681 552 10;
#X obj 196 209 textfile;
#X obj 116 239 print LINE;
#X msg 196 173 rewind;
#X obj 176 315 route canvas;
#X obj 59 418 print Xpos;
#X obj 126 418 print Ypos;
#X obj 196 234 route #N #X;
#X obj 239 66 tgl 20 0 empty empty empty 0 -6 0 8 -24198 -1 -1 0 1
;
#X msg 349 298 vis 1 \, clear;
#X obj 147 134 + 1;
#X obj 105 134 float;
#X obj 349 112 select 1;
#X msg 105 173 bang;
#X msg 61 392 \$1;
#X obj 176 337 list;
#X msg 126 390 \$2;
#X obj 194 418 print width;
#X obj 268 418 print height;
#X msg 268 390 \$4;
#X msg 194 390 \$3;
#X obj 227 269 route restore;
#X obj 103 110 metro 1;
#X msg 454 133 set read \$1;
#X obj 454 89 inlet;
#X obj 239 36 inlet;
#X obj 349 357 outlet;
#X obj 456 357 outlet;
#X msg 395 175;
#X connect 0 0 1 0;
#X connect 0 0 6 0;
#X connect 0 1 7 0;
#X connect 2 0 0 0;
#X connect 3 0 14 0;
#X connect 6 0 3 0;
#X connect 6 1 20 0;
#X connect 7 0 11 0;
#X connect 7 0 21 0;
#X connect 7 0 26 0;
#X connect 8 0 25 0;
#X connect 9 0 10 1;
#X connect 10 0 9 0;
#X connect 10 0 12 0;
#X connect 11 0 27 0;
#X connect 11 0 2 0;
#X connect 11 0 8 0;
#X connect 12 0 0 0;
#X connect 13 0 4 0;
#X connect 14 0 13 0;
#X connect 14 0 15 0;
#X connect 14 0 19 0;
#X connect 14 0 18 0;
#X connect 15 0 5 0;
#X connect 18 0 17 0;
#X connect 19 0 16 0;
#X connect 20 1 25 0;
#X connect 21 0 10 0;
#X connect 22 0 27 0;
#X connect 23 0 22 0;
#X connect 24 0 7 0;
#X connect 27 0 0 0;
