#N canvas 620 367 541 279 10;
#X obj 63 21 inlet;
#X obj 182 21 inlet;
#X obj 290 21 inlet;
#X obj 400 21 inlet;
#X obj 63 -17 outlet;
#X obj 182 -17 outlet;
#X obj 290 -17 outlet;
#X obj 400 -17 outlet;
#X obj 63 -55 r \$0-alphaPolyIN;
#X obj 182 -55 r \$0-tamPolyIN;
#X obj 290 -55 r \$0-rotPolyIN;
#X obj 400 -55 r \$0-posPolyIN;
#X obj 400 57 s \$0-posPolyOUT;
#X obj 290 57 s \$0-rotPolyOUT;
#X obj 182 57 s \$0-tamPolyOUT;
#X obj 63 57 s \$0-alphaPolyOUT;
#X connect 0 0 15 0;
#X connect 1 0 14 0;
#X connect 2 0 13 0;
#X connect 3 0 12 0;
#X connect 8 0 4 0;
#X connect 9 0 5 0;
#X connect 10 0 6 0;
#X connect 11 0 7 0;
