#N canvas 626 450 541 279 10;
#X obj 400 -55 r \$0-posRetIN;
#X obj 290 -55 r \$0-rotRetIN;
#X obj 182 -55 r \$0-tamRetIN;
#X obj 63 -55 r \$0-alphaRetIN;
#X obj 63 57 s \$0-alphaRetOUT;
#X obj 182 57 s \$0-tamRetOUT;
#X obj 290 57 s \$0-rotRetOUT;
#X obj 400 57 s \$0-posRetOUT;
#X obj 63 21 inlet;
#X obj 182 21 inlet;
#X obj 290 21 inlet;
#X obj 400 21 inlet;
#X obj 63 -17 outlet;
#X obj 182 -17 outlet;
#X obj 290 -17 outlet;
#X obj 400 -17 outlet;
#X text 103 79 0/1;
#X text 200 79 pack x y;
#X text 300 79 pack x y z;
#X text 414 79 pack x y z;
#X connect 0 0 15 0;
#X connect 1 0 14 0;
#X connect 2 0 13 0;
#X connect 3 0 12 0;
#X connect 8 0 4 0;
#X connect 9 0 5 0;
#X connect 10 0 6 0;
#X connect 11 0 7 0;
