#N canvas 1 876 1598 203 10;
#X declare -stdpath extra/tof;
#X declare -stdpath extra/tof;
#N canvas 1 816 1598 814 assist 1;
#X obj 798 101 image /home/guzz/PD/ZZ/Imagens/assist.gif;
#X obj 704 -62 getdir;
#X obj 704 -95 bng 15 250 50 0 empty empty empty 17 7 0 10 -262144
-1 -1;
#X msg 704 -25 open \$1/Imagens/assist.gif;
#N canvas 439 198 916 664 AssistTela 0;
#X obj 481 92 file.path.top;
#X obj 377 294 print WHOLE_PATH;
#X obj 413 259 print FILE_NAME;
#X obj 452 184 print index;
#X obj 575 160 print DONE(#_OF_ENTRIES);
#X obj 397 129 file.folder;
#X msg 403 89 print;
#X obj 265 138 counter;
#X obj 265 90 bng 15 250 50 0 empty empty empty 17 7 0 10 -262144 -1
-1;
#X obj 272 24 loadbang;
#X obj 204 56 spigot;
#X obj 235 35 tgl 15 0 empty empty empty 17 7 0 10 -262144 -1 -1 0
1;
#X msg 200 -2 1;
#X obj 291 199 route 0;
#X obj 336 57 t b b b;
#X obj 98 -7 t b f;
#N canvas 573 280 450 300 list 0;
#X msg 10 30 append \$1;
#X obj 10 10 r filenameTelas;
#X obj 10 50 s optionsTelas;
#X connect 0 0 2 0;
#X connect 1 0 0 0;
#X restore 394 375 pd list;
#X obj 556 276 spigot;
#X obj 587 255 tgl 15 0 empty empty empty 17 7 0 10 -262144 -1 -1 1
1;
#X msg 552 218 1;
#X msg 89 83 options;
#X obj 316 262 delay 100;
#X obj 54 167 outlet;
#X msg 472 59 ./Telas;
#X obj 37 29 r optionsTelas;
#X obj 431 232 s filenameTelas;
#X connect 0 0 5 1;
#X connect 5 0 1 0;
#X connect 5 1 2 0;
#X connect 5 1 17 0;
#X connect 5 2 3 0;
#X connect 5 3 4 0;
#X connect 5 3 7 4;
#X connect 6 0 5 0;
#X connect 7 0 15 0;
#X connect 7 2 13 0;
#X connect 8 0 10 0;
#X connect 9 0 12 0;
#X connect 9 0 14 0;
#X connect 9 0 20 0;
#X connect 10 0 7 0;
#X connect 11 0 10 1;
#X connect 12 0 11 0;
#X connect 13 0 11 0;
#X connect 13 0 22 0;
#X connect 14 0 21 0;
#X connect 14 1 19 0;
#X connect 14 2 23 0;
#X connect 15 0 8 0;
#X connect 15 1 5 0;
#X connect 17 0 25 0;
#X connect 18 0 17 1;
#X connect 19 0 18 0;
#X connect 20 0 22 0;
#X connect 21 0 8 0;
#X connect 23 0 0 0;
#X connect 24 0 22 0;
#X restore 960 -68 pd AssistTela;
#X obj 668 157 popup 124 25 #e8e806 popup zz.Retangulo.pd;
#X msg 785 -62 bgcolour #e8e806;
#N canvas 506 198 916 664 AssistTela 0;
#X obj 481 92 file.path.top;
#X obj 377 294 print WHOLE_PATH;
#X obj 413 259 print FILE_NAME;
#X obj 452 184 print index;
#X obj 575 160 print DONE(#_OF_ENTRIES);
#X obj 397 129 file.folder;
#X msg 403 89 print;
#X obj 265 138 counter;
#X obj 265 90 bng 15 250 50 0 empty empty empty 17 7 0 10 -262144 -1
-1;
#X obj 272 24 loadbang;
#X obj 204 56 spigot;
#X obj 235 35 tgl 15 0 empty empty empty 17 7 0 10 -262144 -1 -1 1
1;
#X msg 200 -2 1;
#X obj 291 199 route 0;
#X obj 336 57 t b b b;
#X obj 98 -7 t b f;
#N canvas 5 159 450 300 list 0;
#X msg 10 30 append \$1;
#X obj 10 10 r filenamePreset;
#X obj 10 50 s optionsPreset;
#X connect 0 0 2 0;
#X connect 1 0 0 0;
#X restore 394 375 pd list;
#X obj 556 276 spigot;
#X obj 587 255 tgl 15 0 empty empty empty 17 7 0 10 -262144 -1 -1 1
1;
#X msg 552 218 1;
#X msg 89 83 options;
#X obj 316 262 delay 100;
#X obj 54 167 outlet;
#X msg 472 59 ./Presets;
#X obj 37 29 r optionsPreset;
#X obj 431 232 s filenamePreset;
#X connect 0 0 5 1;
#X connect 5 0 1 0;
#X connect 5 1 2 0;
#X connect 5 1 17 0;
#X connect 5 2 3 0;
#X connect 5 3 4 0;
#X connect 5 3 7 4;
#X connect 6 0 5 0;
#X connect 7 0 15 0;
#X connect 7 2 13 0;
#X connect 8 0 10 0;
#X connect 9 0 12 0;
#X connect 9 0 14 0;
#X connect 9 0 20 0;
#X connect 10 0 7 0;
#X connect 11 0 10 1;
#X connect 12 0 11 0;
#X connect 13 0 11 0;
#X connect 13 0 22 0;
#X connect 14 0 21 0;
#X connect 14 1 19 0;
#X connect 14 2 23 0;
#X connect 15 0 8 0;
#X connect 15 1 5 0;
#X connect 17 0 25 0;
#X connect 18 0 17 1;
#X connect 19 0 18 0;
#X connect 20 0 22 0;
#X connect 21 0 8 0;
#X connect 23 0 0 0;
#X connect 24 0 22 0;
#X restore 1110 -66 pd AssistTela;
#X obj 1177 135 popup 124 25 #e8e806 popup;
#X obj 1475 144 bng 40 250 50 0 empty empty empty 17 7 0 10 -241282
-1 -1;
#X obj 448 119 bng 40 250 50 0 empty empty ajuda 42 18 0 20 -241282
-1 -262144;
#X obj 961 118 bng 40 250 50 0 empty empty continue -83 18 0 20 -241282
-1 -262144;
#X symbolatom 683 124 15 0 0 0 - - -;
#X msg 567 -33 symbol Novo;
#N canvas 694 496 450 300 help 0;
#X obj 120 16 inlet;
#X msg 121 145 set open \$1 /home/guzz/PD/ZZ/Help;
#X obj 121 237 s pd;
#X obj 202 58 getdir;
#X obj 201 31 bng 15 250 50 0 empty empty empty 17 7 0 10 -262144 -1
-1;
#X obj 324 18 inlet;
#X msg 121 104 set \, add2 set \, add2 open \, adddollar 1 \, add2
\$1/Help;
#X msg 121 182 open 0 /home/guzz/PD/ZZ/Help;
#X obj 230 25 loadbang;
#X connect 0 0 7 0;
#X connect 1 0 7 0;
#X connect 3 0 6 0;
#X connect 4 0 3 0;
#X connect 5 0 1 0;
#X connect 6 0 1 0;
#X connect 7 0 2 0;
#X connect 8 0 3 0;
#X restore 448 319 pd help;
#N canvas 1030 1255 450 300 continue 0;
#X obj 1 1 inlet;
#X obj 60 1 inlet;
#X msg 60 20 menuclose;
#X obj 60 40 s pd-novo;
#X connect 0 0 3 0;
#X connect 1 0 2 0;
#X connect 2 0 3 0;
#X restore 704 332 pd continue;
#N canvas 66 1036 595 514 clonando 0;
#X obj 161 6 inlet;
#X obj 37 320 clonando;
#X msg 127 332 1;
#X msg 82 283 symbol \$1/zz.Padrao.pd;
#X obj 127 307 t b s;
#X msg 154 334 \; pd filename \$1 ./Presets \; #N canvas 0 51 1600
816 10 \; #X pop 1 \;;
#X obj 82 244 inlet;
#X obj 195 179 s pd-continue;
#X obj 37 353 outlet;
#X obj 128 257 symbol;
#X obj 128 223 bng 15 250 50 0 empty empty empty 17 7 0 10 -262144
-1 -1;
#X obj 144 223 delay 500;
#X msg 51 126 vis 1;
#X obj 51 156 s pd-ZZ02.pd;
#N canvas 671 1272 450 331 count 0;
#X obj 157 82 metro 100;
#X msg 219 42 stop;
#X obj 157 125 counter;
#X obj 172 197 outlet;
#X obj 187 228 outlet;
#X obj 157 7 inlet;
#X msg 157 42 bang;
#X msg 306 108 4;
#X obj 306 32 loadbang;
#X obj 157 163 sel 0 1 2 3 4;
#X obj 202 259 outlet;
#X obj 217 290 outlet;
#X connect 0 0 2 0;
#X connect 1 0 0 0;
#X connect 2 0 9 0;
#X connect 5 0 6 0;
#X connect 6 0 0 0;
#X connect 7 0 2 4;
#X connect 8 0 7 0;
#X connect 9 0 1 0;
#X connect 9 1 3 0;
#X connect 9 2 4 0;
#X connect 9 3 10 0;
#X connect 9 4 11 0;
#X restore 161 60 pd count;
#X obj 195 23 symbol;
#X msg 212 94 vis 1 \, editmode 1 \, mouse 0 20 0 0 \, mouseup 200
200 0 0 \, cut;
#X msg 195 136 msg 60 20 menuclose \, connect 1 0 2 0 \, obj 60 40
s pd-\$1 \, connect 2 0 3 0 \, connect 0 0 3 0 \, vis 0;
#X connect 0 0 15 1;
#X connect 0 0 9 1;
#X connect 0 0 14 0;
#X connect 1 0 8 0;
#X connect 2 0 1 0;
#X connect 3 0 1 1;
#X connect 4 0 2 0;
#X connect 4 1 5 0;
#X connect 6 0 3 0;
#X connect 9 0 4 0;
#X connect 10 0 9 0;
#X connect 11 0 10 0;
#X connect 12 0 13 0;
#X connect 14 0 16 0;
#X connect 14 1 15 0;
#X connect 14 2 10 0;
#X connect 14 3 12 0;
#X connect 15 0 17 0;
#X connect 16 0 7 0;
#X connect 17 0 7 0;
#X restore 704 277 pd clonando;
#X obj 767 247 t s b;
#N canvas 39 367 474 411 CriandoTela 0;
#X obj 121 73 inlet;
#X obj 148 167 outlet;
#X msg 148 117 obj -370 610 pd Tela;
#X obj 288 301 clonando;
#X msg 121 284 1;
#X obj 333 167 inlet;
#X obj 378 168 inlet;
#X obj 333 204 pack s s;
#X obj 398 189 bng 15 250 50 0 empty empty empty 17 7 0 10 -262144
-1 -1;
#X msg 333 234 symbol \$2/Telas/\$1;
#X obj 288 334 s pd-Tela;
#X obj 121 94 t b b;
#X connect 0 0 11 0;
#X connect 2 0 1 0;
#X connect 3 0 10 0;
#X connect 4 0 3 0;
#X connect 5 0 7 0;
#X connect 6 0 7 1;
#X connect 6 0 8 0;
#X connect 7 0 9 0;
#X connect 8 0 7 0;
#X connect 9 0 3 1;
#X connect 11 0 4 0;
#X connect 11 1 2 0;
#X restore 904 360 pd CriandoTela;
#X obj 548 -79 loadbang;
#X connect 1 0 3 0;
#X connect 1 0 16 0;
#X connect 2 0 1 0;
#X connect 3 0 0 0;
#X connect 4 0 5 0;
#X connect 5 0 14 1;
#X connect 6 0 5 0;
#X connect 6 0 8 0;
#X connect 7 0 8 0;
#X connect 10 0 14 0;
#X connect 12 0 17 0;
#X connect 13 0 12 0;
#X connect 16 0 15 0;
#X connect 17 0 16 1;
#X connect 17 1 15 1;
#X connect 19 0 1 0;
#X connect 19 0 6 0;
#X coords 0 -1 1 1 1595 200 1 0 0;
#X restore -2 -21 pd assist;
