#N canvas 673 230 776 632 24;
#X obj 226 154 image /home/guzz/PD/ZZ/Imagens/MW.gif;
#X obj 227 -152 loadbang;
#X floatatom 289 41 5 0 0 0 - tamY -;
#X floatatom 164 41 5 0 0 0 - tamX -;
#X floatatom 180 151 5 0 0 0 - posY -;
#X floatatom 55 151 5 0 0 0 - posX -;
#X obj 4 216 tgl 50 0 empty empty empty 17 7 0 10 -262144 -1 -1 0 1
;
#X obj 6 40 tgl 50 0 empty empty empty 17 7 0 10 -262144 -1 -1 0 1
;
#X obj 340 159 bng 100 250 50 0 empty empty empty 17 7 0 10 -262144
-1 -1;
#N canvas 12 309 787 553 posicao 0;
#X obj 97 28 inlet;
#X obj 206 28 inlet;
#X obj 97 417 outlet;
#X floatatom 97 122 5 0 0 0 - - -;
#X floatatom 206 122 5 0 0 0 - - -;
#X obj 97 275 list;
#X msg 97 350 offset 1600 0;
#X obj 97 235 pack f f;
#X obj 55 107 bng 15 250 50 0 empty empty empty 17 7 0 10 -262144 -1
-1;
#X obj 97 392 bng 15 250 50 0 empty empty empty 17 7 0 10 -262144 -1
-1;
#X obj 55 154 bng 15 250 50 0 empty empty empty 17 7 0 10 -262144 -1
-1;
#X msg 97 313 set offset \$1 \$2;
#X msg 358 61 set \$1;
#X msg 358 113 1600;
#X msg 495 61 set \$1;
#X msg 495 113 0;
#X obj 625 80 loadbang;
#X obj 358 167 s posX;
#X obj 495 167 s posY;
#X connect 0 0 3 0;
#X connect 0 0 12 0;
#X connect 1 0 4 0;
#X connect 1 0 14 0;
#X connect 3 0 7 0;
#X connect 3 0 10 0;
#X connect 4 0 7 1;
#X connect 4 0 8 0;
#X connect 4 0 10 0;
#X connect 5 0 11 0;
#X connect 6 0 9 0;
#X connect 6 0 2 0;
#X connect 7 0 5 0;
#X connect 8 0 3 0;
#X connect 10 0 6 0;
#X connect 11 0 6 0;
#X connect 12 0 13 0;
#X connect 13 0 17 0;
#X connect 14 0 15 0;
#X connect 15 0 18 0;
#X connect 16 0 15 0;
#X connect 16 0 13 0;
#X restore 492 183 pd posicao;
#X obj 492 429 gemwin;
#X obj 7 340 sel 0 1;
#X msg 7 396 destroy;
#N canvas 11 321 920 501 tamanho 0;
#X obj 106 20 inlet;
#X obj 215 20 inlet;
#X obj 106 411 outlet;
#X floatatom 106 124 5 0 0 0 - - -;
#X floatatom 215 124 5 0 0 0 - - -;
#X obj 106 246 list;
#X msg 106 346 dimen 640 480;
#X obj 106 206 pack f f;
#X obj 64 109 bng 15 250 50 0 empty empty empty 17 7 0 10 -262144 -1
-1;
#X obj 106 388 bng 15 250 50 0 empty empty empty 17 7 0 10 -262144
-1 -1;
#X obj 65 156 bng 15 250 50 0 empty empty empty 17 7 0 10 -262144 -1
-1;
#X msg 106 284 set dimen \$1 \$2;
#X msg 417 53 set \$1;
#X msg 554 53 set \$1;
#X msg 554 105 480;
#X obj 684 72 loadbang;
#X obj 417 159 s tamX;
#X obj 554 159 s tamY;
#X msg 417 105 640;
#X connect 0 0 3 0;
#X connect 0 0 12 0;
#X connect 1 0 4 0;
#X connect 1 0 13 0;
#X connect 3 0 7 0;
#X connect 3 0 10 0;
#X connect 4 0 7 1;
#X connect 4 0 8 0;
#X connect 4 0 10 0;
#X connect 5 0 11 0;
#X connect 6 0 9 0;
#X connect 6 0 2 0;
#X connect 7 0 5 0;
#X connect 8 0 3 0;
#X connect 10 0 6 0;
#X connect 11 0 6 0;
#X connect 12 0 18 0;
#X connect 13 0 14 0;
#X connect 14 0 17 0;
#X connect 15 0 14 0;
#X connect 15 0 18 0;
#X connect 18 0 16 0;
#X restore 492 73 pd tamanho;
#N canvas 223 562 450 300 borda 0;
#X msg 167 130 set border \$1;
#X obj 100 23 inlet;
#X msg 167 182 border 0;
#X obj 294 182 loadbang;
#X obj 167 250 outlet;
#X obj 67 105 bng 15 250 50 0 empty empty empty 17 7 0 10 -262144 -1
-1;
#X obj 100 72 t b f;
#X connect 0 0 2 0;
#X connect 1 0 6 0;
#X connect 2 0 4 0;
#X connect 3 0 2 0;
#X connect 5 0 2 0;
#X connect 6 0 5 0;
#X connect 6 1 0 0;
#X restore 492 266 pd borda;
#X msg 117 396 create \, 1;
#X msg 340 325 menusave;
#X obj 340 380 s pd-MW.pd;
#X obj 227 -99 s getdir;
#X obj 372 -98 r dir;
#X msg 227 -45 open \$1/Imagens/MW.gif;
#X connect 1 0 18 0;
#X connect 2 0 13 1;
#X connect 3 0 13 0;
#X connect 4 0 9 1;
#X connect 5 0 9 0;
#X connect 6 0 14 0;
#X connect 7 0 11 0;
#X connect 8 0 16 0;
#X connect 9 0 10 0;
#X connect 11 0 12 0;
#X connect 11 1 15 0;
#X connect 12 0 10 0;
#X connect 13 0 10 0;
#X connect 14 0 10 0;
#X connect 15 0 10 0;
#X connect 16 0 17 0;
#X connect 19 0 20 0;
#X connect 20 0 0 0;
#X coords 0 -1 1 1 450 306 1 0 0;
